<svg width="196" height="83" viewBox="0 0 196 83" fill="none" xmlns="http://www.w3.org/2000/svg">
<path d="M7.6 35.2H14.8C14.8 34.08 15.0267 33.04 15.48 32.08C15.9333 31.12 16.5067 30.2933 17.2 29.6H17.6C17.5467 29.9467 17.5067 30.3067 17.48 30.68C17.4533 31 17.4267 31.3467 17.4 31.72C17.4 32.0933 17.4 32.4533 17.4 32.8C17.4 33.3067 17.4 33.76 17.4 34.16C17.4267 34.5333 17.4533 34.8667 17.48 35.16C17.5067 35.48 17.5467 35.76 17.6 36H1.8V35.6L4.2 35V9L1.8 8.4V8H10V8.4L7.6 9V35.2ZM30.7891 26.2C28.4691 26.2 26.7491 26.72 25.6291 27.76C24.5357 28.7733 23.9891 30.1867 23.9891 32C23.9891 33.2 24.2824 34.1333 24.8691 34.8C25.4557 35.4667 26.0957 35.8 26.7891 35.8C27.4291 35.8 27.9891 35.6133 28.4691 35.24C28.9757 34.8667 29.4024 34.4533 29.7491 34C30.1491 33.4933 30.4957 32.8933 30.7891 32.2V26.2ZM27.7891 17.6C26.9891 17.6 26.3224 17.88 25.7891 18.44C25.2557 18.9733 24.9891 19.6933 24.9891 20.6C24.9891 20.8133 24.9891 21 24.9891 21.16C25.0157 21.32 25.0424 21.4667 25.0691 21.6C25.0957 21.7333 25.1357 21.8667 25.1891 22L21.9891 22.8C21.9357 22.72 21.8957 22.6133 21.8691 22.48C21.8424 22.3467 21.8157 22.2 21.7891 22.04C21.7891 21.88 21.7891 21.6667 21.7891 21.4C21.7891 20.84 21.9224 20.3067 22.1891 19.8C22.4557 19.2667 22.8424 18.8 23.3491 18.4C23.8824 17.9733 24.5091 17.64 25.2291 17.4C25.9757 17.1333 26.8291 17 27.7891 17C29.7091 17 31.2157 17.5467 32.3091 18.64C33.4291 19.7333 33.9891 21.1867 33.9891 23V35L36.3891 35.6V36H30.7891V33.6C30.4957 34.16 30.1224 34.6667 29.6691 35.12C29.2957 35.4933 28.8157 35.8267 28.2291 36.12C27.6691 36.44 26.9891 36.6 26.1891 36.6C24.2691 36.6 22.8157 36.1467 21.8291 35.24C20.8691 34.3333 20.3891 33.12 20.3891 31.6C20.3891 30.8533 20.5891 30.1067 20.9891 29.36C21.4157 28.6133 22.0424 27.9467 22.8691 27.36C23.7224 26.7733 24.8024 26.3067 26.1091 25.96C27.4157 25.5867 28.9757 25.4 30.7891 25.4V23C30.7891 21 30.4824 19.6 29.8691 18.8C29.2824 18 28.5891 17.6 27.7891 17.6ZM70.9922 8H76.5922V8.4L74.1922 9V35L76.5922 35.6V36H68.3922V35.6L70.7922 35V11.4L62.1922 36.6H61.5922L51.9922 11.4V34.6L54.5922 35.6V36H48.5922V35.6L51.1922 34.6V9.2L48.5922 8.4V8H54.3922L63.1522 31L70.9922 8ZM90.3984 26.2C88.0784 26.2 86.3584 26.72 85.2384 27.76C84.1451 28.7733 83.5984 30.1867 83.5984 32C83.5984 33.2 83.8918 34.1333 84.4784 34.8C85.0651 35.4667 85.7051 35.8 86.3984 35.8C87.0384 35.8 87.5984 35.6133 88.0784 35.24C88.5851 34.8667 89.0118 34.4533 89.3584 34C89.7584 33.4933 90.1051 32.8933 90.3984 32.2V26.2ZM87.3984 17.6C86.5984 17.6 85.9318 17.88 85.3984 18.44C84.8651 18.9733 84.5984 19.6933 84.5984 20.6C84.5984 20.8133 84.5984 21 84.5984 21.16C84.6251 21.32 84.6518 21.4667 84.6784 21.6C84.7051 21.7333 84.7451 21.8667 84.7984 22L81.5984 22.8C81.5451 22.72 81.5051 22.6133 81.4784 22.48C81.4518 22.3467 81.4251 22.2 81.3984 22.04C81.3984 21.88 81.3984 21.6667 81.3984 21.4C81.3984 20.84 81.5318 20.3067 81.7984 19.8C82.0651 19.2667 82.4518 18.8 82.9584 18.4C83.4918 17.9733 84.1184 17.64 84.8384 17.4C85.5851 17.1333 86.4384 17 87.3984 17C89.3184 17 90.8251 17.5467 91.9184 18.64C93.0384 19.7333 93.5984 21.1867 93.5984 23V35L95.9984 35.6V36H90.3984V33.6C90.1051 34.16 89.7318 34.6667 89.2784 35.12C88.9051 35.4933 88.4251 35.8267 87.8384 36.12C87.2784 36.44 86.5984 36.6 85.7984 36.6C83.8784 36.6 82.4251 36.1467 81.4384 35.24C80.4784 34.3333 79.9984 33.12 79.9984 31.6C79.9984 30.8533 80.1984 30.1067 80.5984 29.36C81.0251 28.6133 81.6518 27.9467 82.4784 27.36C83.3318 26.7733 84.4118 26.3067 85.7184 25.96C87.0251 25.5867 88.5851 25.4 90.3984 25.4V23C90.3984 21 90.0918 19.6 89.4784 18.8C88.8918 18 88.1984 17.6 87.3984 17.6ZM103.992 35L106.392 35.6V36H98.3922V35.6L100.792 35V18.6L98.3922 18V17.6H103.992V22.4C104.339 21.4133 104.752 20.52 105.232 19.72C105.659 19.0267 106.179 18.4 106.792 17.84C107.406 17.28 108.139 17 108.992 17C109.286 17 109.566 17.0267 109.832 17.08C110.099 17.1067 110.339 17.1467 110.552 17.2C110.792 17.28 111.006 17.3467 111.192 17.4L109.992 20.4C109.832 20.32 109.659 20.2267 109.472 20.12C109.312 20.04 109.112 19.9733 108.872 19.92C108.659 19.84 108.432 19.8 108.192 19.8C107.499 19.8 106.886 19.9867 106.352 20.36C105.819 20.7333 105.379 21.1467 105.032 21.6C104.606 22.1333 104.259 22.7333 103.992 23.4V35ZM115.206 35V18.6L112.806 18V17.6H118.406V35L120.806 35.6V36H112.806V35.6L115.206 35ZM118.606 13C118.606 13.5067 118.393 13.9733 117.966 14.4C117.566 14.8 117.113 15 116.606 15C116.1 15 115.633 14.8 115.206 14.4C114.806 13.9733 114.606 13.5067 114.606 13C114.606 12.4933 114.806 12.04 115.206 11.64C115.633 11.2133 116.1 11 116.606 11C117.113 11 117.566 11.2133 117.966 11.64C118.393 12.04 118.606 12.4933 118.606 13ZM125.197 18.6L122.797 18V17.6H128.397V20C128.664 19.4667 129.024 18.9733 129.477 18.52C129.85 18.1467 130.33 17.8 130.917 17.48C131.504 17.16 132.197 17 132.997 17C133.85 17 134.69 17.2267 135.517 17.68C136.37 18.1067 137.117 18.7467 137.757 19.6C138.424 20.4267 138.957 21.4533 139.357 22.68C139.784 23.88 139.997 25.2533 139.997 26.8C139.997 28.3467 139.784 29.7333 139.357 30.96C138.957 32.16 138.41 33.1867 137.717 34.04C137.024 34.8667 136.237 35.5067 135.357 35.96C134.477 36.3867 133.557 36.6 132.597 36.6C131.824 36.6 131.17 36.4933 130.637 36.28C130.13 36.0933 129.704 35.8667 129.357 35.6C128.957 35.3067 128.637 34.9733 128.397 34.6V44.6L130.797 45.2V45.6H122.797V45.2L125.197 44.6V18.6ZM131.997 35.8C132.557 35.8 133.09 35.6533 133.597 35.36C134.13 35.0667 134.597 34.5733 134.997 33.88C135.424 33.16 135.757 32.2267 135.997 31.08C136.264 29.9333 136.397 28.5067 136.397 26.8C136.397 25.0933 136.264 23.6667 135.997 22.52C135.757 21.3733 135.437 20.4533 135.037 19.76C134.664 19.0667 134.237 18.5733 133.757 18.28C133.304 17.96 132.85 17.8 132.397 17.8C131.73 17.8 131.157 17.9867 130.677 18.36C130.197 18.7333 129.784 19.1467 129.437 19.6C129.037 20.1333 128.69 20.7333 128.397 21.4V33.4C128.637 33.8533 128.93 34.2533 129.277 34.6C129.57 34.8933 129.944 35.1733 130.397 35.44C130.85 35.68 131.384 35.8 131.997 35.8ZM151.197 17.6C150.744 17.6 150.277 17.76 149.797 18.08C149.344 18.3733 148.917 18.88 148.517 19.6C148.144 20.2933 147.824 21.2267 147.557 22.4C147.317 23.5733 147.197 25.04 147.197 26.8C147.197 28.56 147.317 30.0267 147.557 31.2C147.824 32.3733 148.144 33.32 148.517 34.04C148.917 34.7333 149.344 35.24 149.797 35.56C150.277 35.8533 150.744 36 151.197 36C151.65 36 152.104 35.8533 152.557 35.56C153.037 35.24 153.464 34.7333 153.837 34.04C154.237 33.32 154.557 32.3733 154.797 31.2C155.064 30.0267 155.197 28.56 155.197 26.8C155.197 25.04 155.064 23.5733 154.797 22.4C154.557 21.2267 154.237 20.2933 153.837 19.6C153.464 18.88 153.037 18.3733 152.557 18.08C152.104 17.76 151.65 17.6 151.197 17.6ZM151.197 17C152.184 17 153.13 17.2267 154.037 17.68C154.97 18.1067 155.784 18.7467 156.477 19.6C157.197 20.4267 157.757 21.4533 158.157 22.68C158.584 23.88 158.797 25.2533 158.797 26.8C158.797 28.3467 158.584 29.7333 158.157 30.96C157.757 32.16 157.197 33.1867 156.477 34.04C155.784 34.8667 154.97 35.5067 154.037 35.96C153.13 36.3867 152.184 36.6 151.197 36.6C150.184 36.6 149.224 36.3867 148.317 35.96C147.41 35.5067 146.597 34.8667 145.877 34.04C145.184 33.1867 144.624 32.16 144.197 30.96C143.797 29.7333 143.597 28.3467 143.597 26.8C143.597 25.2533 143.797 23.88 144.197 22.68C144.624 21.4533 145.184 20.4267 145.877 19.6C146.597 18.7467 147.41 18.1067 148.317 17.68C149.224 17.2267 150.184 17 151.197 17ZM169.186 36.6C168.333 36.6 167.599 36.4933 166.986 36.28C166.373 36.0933 165.879 35.8667 165.506 35.6C165.053 35.3067 164.679 34.9733 164.386 34.6C164.279 35 164.053 35.3733 163.706 35.72C163.386 36.0667 163.079 36.2933 162.786 36.4H162.186C162.213 36.0533 162.239 35.6933 162.266 35.32C162.293 35 162.319 34.6667 162.346 34.32C162.373 33.9467 162.386 33.5733 162.386 33.2C162.386 32.8 162.373 32.4 162.346 32C162.319 31.6 162.293 31.24 162.266 30.92C162.239 30.5467 162.213 30.1733 162.186 29.8H162.786C163.293 31.72 164.066 33.2 165.106 34.24C166.146 35.28 167.373 35.8 168.786 35.8C169.906 35.8 170.813 35.4533 171.506 34.76C172.226 34.0667 172.586 33.2133 172.586 32.2C172.586 31.48 172.333 30.8533 171.826 30.32C171.346 29.7867 170.733 29.3067 169.986 28.88C169.239 28.4267 168.439 27.9867 167.586 27.56C166.733 27.1333 165.933 26.6533 165.186 26.12C164.439 25.5867 163.813 24.96 163.306 24.24C162.826 23.52 162.586 22.64 162.586 21.6C162.586 21.0133 162.719 20.44 162.986 19.88C163.253 19.32 163.613 18.8267 164.066 18.4C164.546 17.9733 165.119 17.64 165.786 17.4C166.453 17.1333 167.186 17 167.986 17C168.679 17 169.279 17.1067 169.786 17.32C170.319 17.5333 170.773 17.76 171.146 18C171.546 18.2933 171.893 18.6267 172.186 19C172.293 18.6 172.506 18.2267 172.826 17.88C173.173 17.5333 173.493 17.3067 173.786 17.2H174.386C174.333 17.5467 174.293 17.9067 174.266 18.28C174.239 18.6 174.213 18.9467 174.186 19.32C174.186 19.6933 174.186 20.0533 174.186 20.4C174.186 20.8 174.186 21.2133 174.186 21.64C174.213 22.04 174.239 22.4 174.266 22.72C174.293 23.0933 174.333 23.4533 174.386 23.8H173.786C173.279 21.88 172.533 20.4 171.546 19.36C170.559 18.32 169.506 17.8 168.386 17.8C167.479 17.8 166.719 18.1067 166.106 18.72C165.493 19.3067 165.186 20 165.186 20.8C165.186 21.4667 165.439 22.04 165.946 22.52C166.453 23 167.079 23.4533 167.826 23.88C168.573 24.28 169.386 24.6933 170.266 25.12C171.173 25.5467 171.999 26.04 172.746 26.6C173.493 27.16 174.119 27.8267 174.626 28.6C175.133 29.3733 175.386 30.3067 175.386 31.4C175.386 32.04 175.226 32.68 174.906 33.32C174.613 33.9333 174.186 34.4933 173.626 35C173.093 35.48 172.439 35.8667 171.666 36.16C170.919 36.4533 170.093 36.6 169.186 36.6ZM188.797 26.2C186.477 26.2 184.757 26.72 183.637 27.76C182.544 28.7733 181.997 30.1867 181.997 32C181.997 33.2 182.29 34.1333 182.877 34.8C183.464 35.4667 184.104 35.8 184.797 35.8C185.437 35.8 185.997 35.6133 186.477 35.24C186.984 34.8667 187.41 34.4533 187.757 34C188.157 33.4933 188.504 32.8933 188.797 32.2V26.2ZM185.797 17.6C184.997 17.6 184.33 17.88 183.797 18.44C183.264 18.9733 182.997 19.6933 182.997 20.6C182.997 20.8133 182.997 21 182.997 21.16C183.024 21.32 183.05 21.4667 183.077 21.6C183.104 21.7333 183.144 21.8667 183.197 22L179.997 22.8C179.944 22.72 179.904 22.6133 179.877 22.48C179.85 22.3467 179.824 22.2 179.797 22.04C179.797 21.88 179.797 21.6667 179.797 21.4C179.797 20.84 179.93 20.3067 180.197 19.8C180.464 19.2667 180.85 18.8 181.357 18.4C181.89 17.9733 182.517 17.64 183.237 17.4C183.984 17.1333 184.837 17 185.797 17C187.717 17 189.224 17.5467 190.317 18.64C191.437 19.7333 191.997 21.1867 191.997 23V35L194.397 35.6V36H188.797V33.6C188.504 34.16 188.13 34.6667 187.677 35.12C187.304 35.4933 186.824 35.8267 186.237 36.12C185.677 36.44 184.997 36.6 184.197 36.6C182.277 36.6 180.824 36.1467 179.837 35.24C178.877 34.3333 178.397 33.12 178.397 31.6C178.397 30.8533 178.597 30.1067 178.997 29.36C179.424 28.6133 180.05 27.9467 180.877 27.36C181.73 26.7733 182.81 26.3067 184.117 25.96C185.424 25.5867 186.984 25.4 188.797 25.4V23C188.797 21 188.49 19.6 187.877 18.8C187.29 18 186.597 17.6 185.797 17.6Z" fill="white"/>
<path d="M57.52 56.76C57.52 57.6347 57.776 58.392 58.288 59.032C58.8 59.6507 59.44 60.2267 60.208 60.76C60.976 61.2933 61.808 61.816 62.704 62.328C63.6213 62.84 64.464 63.4267 65.232 64.088C66 64.728 66.64 65.4853 67.152 66.36C67.664 67.2347 67.92 68.3013 67.92 69.56C67.92 70.392 67.7707 71.1707 67.472 71.896C67.1733 72.6213 66.7467 73.2507 66.192 73.784C65.6587 74.3173 65.0187 74.7333 64.272 75.032C63.5253 75.3307 62.7147 75.48 61.84 75.48C61.0293 75.48 60.336 75.3947 59.76 75.224C59.184 75.0747 58.704 74.8933 58.32 74.68C57.872 74.4453 57.4987 74.1787 57.2 73.88C57.0293 74.2 56.7947 74.4987 56.496 74.776C56.2187 75.0533 55.92 75.2347 55.6 75.32H55.12C55.1413 75.0213 55.1627 74.7013 55.184 74.36C55.2053 74.0827 55.2267 73.7733 55.248 73.432C55.2693 73.0907 55.28 72.76 55.28 72.44C55.28 72.0773 55.2693 71.7253 55.248 71.384C55.2267 71.0213 55.2053 70.6907 55.184 70.392C55.1627 70.0507 55.1413 69.72 55.12 69.4H55.6C56.0907 71.1707 56.7947 72.5253 57.712 73.464C58.6507 74.3813 59.92 74.84 61.52 74.84C62.8 74.84 63.8347 74.4347 64.624 73.624C65.4347 72.792 65.84 71.6507 65.84 70.2C65.84 69.3253 65.584 68.5787 65.072 67.96C64.56 67.32 63.92 66.7333 63.152 66.2C62.384 65.6667 61.5413 65.144 60.624 64.632C59.728 64.12 58.896 63.544 58.128 62.904C57.36 62.2427 56.72 61.4747 56.208 60.6C55.696 59.7253 55.44 58.6587 55.44 57.4C55.44 56.6747 55.5787 55.992 55.856 55.352C56.1333 54.712 56.5173 54.1573 57.008 53.688C57.4987 53.1973 58.0747 52.8133 58.736 52.536C59.3973 52.2587 60.112 52.12 60.88 52.12C61.52 52.12 62.0853 52.2053 62.576 52.376C63.0667 52.5467 63.4827 52.728 63.824 52.92C64.208 53.1547 64.56 53.4213 64.88 53.72C65.0507 53.4 65.2747 53.1013 65.552 52.824C65.8507 52.5467 66.16 52.3653 66.48 52.28H66.96C66.9173 52.6 66.8853 52.92 66.864 53.24C66.8427 53.5387 66.8213 53.8587 66.8 54.2C66.8 54.52 66.8 54.84 66.8 55.16C66.8 55.5227 66.8 55.8853 66.8 56.248C66.8213 56.5893 66.8427 56.9093 66.864 57.208C66.8853 57.5493 66.9173 57.88 66.96 58.2H66.48C65.9893 56.4293 65.3067 55.0853 64.432 54.168C63.5573 53.2293 62.48 52.76 61.2 52.76C60.1547 52.76 59.28 53.1227 58.576 53.848C57.872 54.5733 57.52 55.544 57.52 56.76ZM78.155 60.28V60.92H74.475V71.128C74.475 72.4293 74.7097 73.3787 75.179 73.976C75.6483 74.552 76.1603 74.84 76.715 74.84C77.4403 74.84 78.0483 74.5733 78.539 74.04C79.051 73.4853 79.3497 72.6853 79.435 71.64H79.915C79.8297 72.856 79.4563 73.8053 78.795 74.488C78.155 75.1493 77.355 75.48 76.395 75.48C75.0297 75.48 73.9417 75.0853 73.131 74.296C72.3203 73.4853 71.915 72.44 71.915 71.16V60.92H69.195V60.28H71.915V56.6L74.475 54.84V60.28H78.155ZM93.37 61.08V74.2L95.29 74.68V75H90.81V73.08C90.5753 73.528 90.2767 73.9333 89.914 74.296C89.6153 74.5947 89.2313 74.8613 88.762 75.096C88.314 75.352 87.77 75.48 87.13 75.48C86.49 75.48 85.8927 75.3627 85.338 75.128C84.8047 74.8933 84.3353 74.5733 83.93 74.168C83.5247 73.7413 83.2047 73.24 82.97 72.664C82.7567 72.0667 82.65 71.4053 82.65 70.68V61.08L80.73 60.6V60.28H86.97V60.6L85.21 61.08V70.68C85.21 72.1947 85.4447 73.272 85.914 73.912C86.4047 74.5307 86.97 74.84 87.61 74.84C88.122 74.84 88.57 74.6907 88.954 74.392C89.3593 74.0933 89.7007 73.7627 89.978 73.4C90.298 72.9947 90.5753 72.5147 90.81 71.96V61.08L89.05 60.6V60.28H95.29V60.6L93.37 61.08ZM104.086 60.44C103.638 60.44 103.201 60.568 102.774 60.824C102.369 61.0587 101.996 61.4533 101.654 62.008C101.334 62.5627 101.068 63.2987 100.854 64.216C100.662 65.1333 100.566 66.2747 100.566 67.64C100.566 69.0053 100.662 70.1467 100.854 71.064C101.068 71.9813 101.324 72.728 101.622 73.304C101.942 73.8587 102.284 74.2533 102.646 74.488C103.03 74.7227 103.404 74.84 103.766 74.84C104.278 74.84 104.726 74.6907 105.11 74.392C105.516 74.0933 105.857 73.7627 106.134 73.4C106.454 72.9947 106.732 72.5147 106.966 71.96V62.36C106.753 61.9973 106.508 61.6773 106.23 61.4C105.996 61.1653 105.697 60.952 105.334 60.76C104.993 60.5467 104.577 60.44 104.086 60.44ZM109.526 74.2L111.446 74.68V75H106.966V73.08C106.732 73.528 106.433 73.9333 106.07 74.296C105.772 74.5947 105.388 74.8613 104.918 75.096C104.47 75.352 103.926 75.48 103.286 75.48C102.604 75.48 101.921 75.3093 101.238 74.968C100.577 74.6053 99.9796 74.0933 99.4463 73.432C98.9343 72.7493 98.5076 71.928 98.1663 70.968C97.8463 69.9867 97.6863 68.8773 97.6863 67.64C97.6863 66.4027 97.8463 65.304 98.1663 64.344C98.5076 63.3627 98.9556 62.5413 99.5103 61.88C100.065 61.1973 100.694 60.6853 101.398 60.344C102.102 59.9813 102.838 59.8 103.606 59.8C104.204 59.8 104.716 59.8853 105.142 60.056C105.569 60.2267 105.921 60.408 106.198 60.6C106.518 60.8347 106.774 61.1013 106.966 61.4V53.4L105.046 52.92V52.6H109.526V74.2ZM115.446 74.2V61.08L113.526 60.6V60.28H118.006V74.2L119.926 74.68V75H113.526V74.68L115.446 74.2ZM118.166 56.6C118.166 57.0053 117.996 57.3787 117.654 57.72C117.334 58.04 116.972 58.2 116.566 58.2C116.161 58.2 115.788 58.04 115.446 57.72C115.126 57.3787 114.966 57.0053 114.966 56.6C114.966 56.1947 115.126 55.832 115.446 55.512C115.788 55.1707 116.161 55 116.566 55C116.972 55 117.334 55.1707 117.654 55.512C117.996 55.832 118.166 56.1947 118.166 56.6ZM128.239 60.28C127.876 60.28 127.503 60.408 127.119 60.664C126.756 60.8987 126.415 61.304 126.095 61.88C125.796 62.4347 125.54 63.1813 125.327 64.12C125.135 65.0587 125.039 66.232 125.039 67.64C125.039 69.048 125.135 70.2213 125.327 71.16C125.54 72.0987 125.796 72.856 126.095 73.432C126.415 73.9867 126.756 74.392 127.119 74.648C127.503 74.8827 127.876 75 128.239 75C128.601 75 128.964 74.8827 129.327 74.648C129.711 74.392 130.052 73.9867 130.351 73.432C130.671 72.856 130.927 72.0987 131.119 71.16C131.332 70.2213 131.439 69.048 131.439 67.64C131.439 66.232 131.332 65.0587 131.119 64.12C130.927 63.1813 130.671 62.4347 130.351 61.88C130.052 61.304 129.711 60.8987 129.327 60.664C128.964 60.408 128.601 60.28 128.239 60.28ZM128.239 59.8C129.028 59.8 129.785 59.9813 130.511 60.344C131.257 60.6853 131.908 61.1973 132.463 61.88C133.039 62.5413 133.487 63.3627 133.807 64.344C134.148 65.304 134.319 66.4027 134.319 67.64C134.319 68.8773 134.148 69.9867 133.807 70.968C133.487 71.928 133.039 72.7493 132.463 73.432C131.908 74.0933 131.257 74.6053 130.511 74.968C129.785 75.3093 129.028 75.48 128.239 75.48C127.428 75.48 126.66 75.3093 125.935 74.968C125.209 74.6053 124.559 74.0933 123.983 73.432C123.428 72.7493 122.98 71.928 122.639 70.968C122.319 69.9867 122.159 68.8773 122.159 67.64C122.159 66.4027 122.319 65.304 122.639 64.344C122.98 63.3627 123.428 62.5413 123.983 61.88C124.559 61.1973 125.209 60.6853 125.935 60.344C126.66 59.9813 127.428 59.8 128.239 59.8ZM142.63 75.48C141.947 75.48 141.361 75.3947 140.87 75.224C140.379 75.0747 139.985 74.8933 139.686 74.68C139.323 74.4453 139.025 74.1787 138.79 73.88C138.705 74.2 138.523 74.4987 138.246 74.776C137.99 75.0533 137.745 75.2347 137.51 75.32H137.03C137.051 75.0427 137.073 74.7547 137.094 74.456C137.115 74.2 137.137 73.9333 137.158 73.656C137.179 73.3573 137.19 73.0587 137.19 72.76C137.19 72.44 137.179 72.12 137.158 71.8C137.137 71.48 137.115 71.192 137.094 70.936C137.073 70.6373 137.051 70.3387 137.03 70.04H137.51C137.915 71.576 138.534 72.76 139.366 73.592C140.198 74.424 141.179 74.84 142.31 74.84C143.206 74.84 143.931 74.5627 144.486 74.008C145.062 73.4533 145.35 72.7707 145.35 71.96C145.35 71.384 145.147 70.8827 144.742 70.456C144.358 70.0293 143.867 69.6453 143.27 69.304C142.673 68.9413 142.033 68.5893 141.35 68.248C140.667 67.9067 140.027 67.5227 139.43 67.096C138.833 66.6693 138.331 66.168 137.926 65.592C137.542 65.016 137.35 64.312 137.35 63.48C137.35 63.0107 137.457 62.552 137.67 62.104C137.883 61.656 138.171 61.2613 138.534 60.92C138.918 60.5787 139.377 60.312 139.91 60.12C140.443 59.9067 141.03 59.8 141.67 59.8C142.225 59.8 142.705 59.8853 143.11 60.056C143.537 60.2267 143.899 60.408 144.198 60.6C144.518 60.8347 144.795 61.1013 145.03 61.4C145.115 61.08 145.286 60.7813 145.542 60.504C145.819 60.2267 146.075 60.0453 146.31 59.96H146.79C146.747 60.2373 146.715 60.5253 146.694 60.824C146.673 61.08 146.651 61.3573 146.63 61.656C146.63 61.9547 146.63 62.2427 146.63 62.52C146.63 62.84 146.63 63.1707 146.63 63.512C146.651 63.832 146.673 64.12 146.694 64.376C146.715 64.6747 146.747 64.9627 146.79 65.24H146.31C145.905 63.704 145.307 62.52 144.518 61.688C143.729 60.856 142.886 60.44 141.99 60.44C141.265 60.44 140.657 60.6853 140.166 61.176C139.675 61.6453 139.43 62.2 139.43 62.84C139.43 63.3733 139.633 63.832 140.038 64.216C140.443 64.6 140.945 64.9627 141.542 65.304C142.139 65.624 142.79 65.9547 143.494 66.296C144.219 66.6373 144.881 67.032 145.478 67.48C146.075 67.928 146.577 68.4613 146.982 69.08C147.387 69.6987 147.59 70.4453 147.59 71.32C147.59 71.832 147.462 72.344 147.206 72.856C146.971 73.3467 146.63 73.7947 146.182 74.2C145.755 74.584 145.233 74.8933 144.614 75.128C144.017 75.3627 143.355 75.48 142.63 75.48Z" fill="white"/>
</svg>
